Coordinates
version=1
nRows=18
nColumns=19
inDegrees=yes

Units are S.I. units (second, meters, Newtons, ...)
If the header above contains a line with 'inDegrees', this indicates whether rotational values are in degrees (yes) or radians (no).

endheader
time	pelvis_tilt	pelvis_list	pelvis_rotation	pelvis_tx	pelvis_ty	pelvis_tz	hip_flexion_r	hip_adduction_r	hip_rotation_r	knee_angle_r	knee_angle_r_beta	ankle_angle_r	hip_flexion_l	hip_adduction_l	hip_rotation_l	knee_angle_l	knee_angle_l_beta	ankle_angle_l
     12.99333333	     -0.11544603	      5.79826378	      5.57340077	      2.07677678	      0.90061804	      1.00980279	    -17.07953006	     -6.59798583	    -11.41895056	     54.14964730	      0.94508963	    -10.88032803	     22.13987157	     11.38502158	     -6.08460126	     23.85395359	      0.41633003	     -2.44795199
     13.00000000	      0.11934989	      6.05863787	      5.92307501	      2.07588001	      0.89546610	      1.01012850	    -16.22289242	     -6.70349056	    -10.80477161	     57.50651742	      1.00367807	    -10.12815769	     22.24043088	     11.76271269	     -5.92126366	     26.31779503	      0.45933218	     -0.55699937
     13.00666667	      0.93446374	      6.50752557	      6.27184937	      2.07491532	      0.89067225	      1.01048103	    -16.05669944	     -6.98033774	    -10.46086511	     60.70526848	      1.05950681	     -9.54832528	     21.56870405	     12.30772797	     -5.67203565	     28.74787265	      0.50174503	      1.54939228
     13.01333333	      1.15685220	      6.60582243	      6.53836401	      2.07367791	      0.88506021	      1.01090547	    -14.98175987	     -6.92764467	     -9.73964715	     64.05500441	      1.11797073	     -9.04929749	     21.66445579	     12.50180644	     -5.45114211	     31.53036167	      0.55030863	      3.98348624
     13.02000000	      1.59368732	      6.80650346	      6.78897706	      2.07231200	      0.87958379	      1.01138905	    -14.11424077	     -6.99629204	     -9.15505797	     67.33172054	      1.17516021	     -8.59945155	     21.40663838	     12.79930384	     -5.16461731	     34.20270397	      0.59694980	      6.52398739
     13.02666667	      2.31965173	      7.17899193	      7.01103011	      2.07090182	      0.87437131	      1.01185968	    -13.57827126	     -7.30433859	     -8.76949433	     70.49974151	      1.23045261	     -8.14283126	     20.67965818	     13.26392898	     -4.84702492	     36.68524239	      0.64027827	      9.14679538
     13.03333333	      2.25675141	      7.08713607	      7.13882889	      2.06900055	      0.86846658	      1.01252140	    -11.82993669	     -7.14822897	     -7.90667990	     73.80949893	      1.28821878	     -7.67324860	     20.96056323	     13.26173914	     -4.59560524	     39.35389325	      0.68685501	     11.68884837
     13.04000000	      2.49879193	      7.18584326	      7.23929529	      2.06708194	      0.86306024	      1.01319273	    -10.43715627	     -7.25431759	     -7.25884797	     76.96050442	      1.34321420	     -7.13799387	     20.73468814	     13.42322641	     -4.35087501	     41.72501654	      0.72823892	     14.15510542
     13.04666667	      2.69898601	      7.26354480	      7.26795812	      2.06496508	      0.85785418	      1.01390307	     -8.89108830	     -7.39597756	     -6.56834735	     80.02778306	      1.39674831	     -6.51858701	     20.49091403	     13.53978496	     -4.13386117	     43.93274324	      0.76677102	     16.46048758
     13.05333333	      2.86203451	      7.36212177	      7.24381568	      2.06271652	      0.85293625	      1.01465658	     -7.22062796	     -7.62418853	     -5.87799975	     82.98391281	      1.44834250	     -5.78820670	     20.19243156	     13.65311638	     -3.94438129	     45.91979872	      0.80145168	     18.56819577
     13.06000000	      2.88777448	      7.43926425	      7.17704564	      2.06034027	      0.84826084	      1.01541735	     -5.29218411	     -7.90146723	     -5.16420726	     85.82686541	      1.49796139	     -5.05159050	     19.96263029	     13.72707064	     -3.78227959	     47.70649438	      0.83263540	     20.45336573
     13.06666667	      2.90507547	      7.53108207	      7.06584420	      2.05789252	      0.84401103	      1.01617684	     -3.28332076	     -8.23927898	     -4.44247411	     88.49599301	      1.54454645	     -4.21966626	     19.62947406	     13.78726182	     -3.64140322	     49.24895515	      0.85955642	     22.12054619
     13.07333333	      2.93864044	      7.66711610	      6.87943584	      2.05541037	      0.84024735	      1.01694622	     -1.22169127	     -8.66805062	     -3.68089567	     90.97258230	      1.58777109	     -3.34097684	     19.14842785	     13.84366530	     -3.58545509	     50.52081985	      0.88175465	     23.55272534
     13.08000000	      2.84148088	      7.75166943	      6.71345577	      2.05289448	      0.83683257	      1.01761549	      1.05605886	     -9.06683956	     -2.92458291	     93.24840277	      1.62749165	     -2.44670629	     18.69683009	     13.86399430	     -3.47469092	     51.57536857	      0.90015999	     24.78992464
     13.08666667	      2.95826562	      7.94097293	      6.51508893	      2.05047555	      0.83416714	      1.01819680	      3.08663762	     -9.59115174	     -2.20738659	     95.23227257	      1.66211671	     -1.47752515	     17.81904250	     13.95740839	     -3.38764219	     52.28818244	      0.91260094	     25.83477351
     13.09333333	      2.66278668	      7.99159795	      6.33244065	      2.04802203	      0.83156082	      1.01869922	      5.68634427	     -9.99990920	     -1.43551941	     97.03196738	      1.69352731	     -0.65907675	     17.32454078	     13.92208126	     -3.34363448	     52.86721456	      0.92270696	     26.74831247
     13.10000000	      2.89216992	      8.05184479	      6.35384119	      2.04587854	      0.83006959	      1.01888299	      7.50091710	    -10.39145974	     -1.04279442	     98.35186511	      1.71656387	      0.28369645	     16.01922276	     13.92096616	     -2.98761888	     53.12679635	      0.92723752	     27.60173100
     13.10666667	      2.26789999	      8.09963426	      6.15394282	      2.04350231	      0.82821153	      1.01919509	     10.54178549	    -10.79040891	     -0.20895787	     99.65892631	      1.73937639	      1.06652734	     15.63030708	     13.91373893	     -2.99381725	     53.21725126	      0.92881625	     28.08821325
